<svg width="107" height="40" viewBox="0 0 107 40" fill="none" xmlns="http://www.w3.org/2000/svg">
<circle cx="20" cy="20" r="18" fill="white"/>
<rect x="9" y="16" width="6" height="17" rx="3" fill="#0284C7"/>
<path d="M25 25C25 23.3431 26.3431 22 28 22V22C29.6569 22 31 23.3431 31 25V30C31 31.6569 29.6569 33 28 33V33C26.3431 33 25 31.6569 25 30V25Z" fill="#A8A29E"/>
<rect x="17" y="8" width="6" height="25" rx="3" fill="#0D9488"/>
<path d="M53.642 19.5788L51.9098 19.8857C51.8374 19.6641 51.7223 19.4531 51.5646 19.2528C51.4112 19.0526 51.2024 18.8885 50.9382 18.7607C50.674 18.6328 50.3438 18.5689 49.9474 18.5689C49.4063 18.5689 48.9545 18.6903 48.5923 18.9332C48.2301 19.1719 48.049 19.4808 48.049 19.8601C48.049 20.1882 48.1705 20.4524 48.4134 20.6527C48.6563 20.853 49.0483 21.017 49.5895 21.1449L51.1491 21.5028C52.0526 21.7116 52.7259 22.0334 53.169 22.468C53.6122 22.9027 53.8338 23.4673 53.8338 24.1619C53.8338 24.75 53.6634 25.2741 53.3224 25.7344C52.9858 26.1903 52.5149 26.5483 51.9098 26.8082C51.3089 27.0682 50.6122 27.1982 49.8196 27.1982C48.7202 27.1982 47.8232 26.9638 47.1286 26.495C46.4339 26.022 46.0078 25.3509 45.8501 24.4815L47.6974 24.2003C47.8125 24.6818 48.049 25.0462 48.407 25.2933C48.7649 25.5362 49.2315 25.6577 49.8068 25.6577C50.4332 25.6577 50.9339 25.5277 51.3089 25.2678C51.6839 25.0036 51.8714 24.6818 51.8714 24.3026C51.8714 23.9957 51.7564 23.7379 51.5263 23.5291C51.3004 23.3203 50.9531 23.1626 50.4844 23.0561L48.8224 22.6918C47.9063 22.483 47.2287 22.1506 46.7898 21.6946C46.3551 21.2386 46.1378 20.6612 46.1378 19.9624C46.1378 19.3828 46.2997 18.8757 46.6236 18.4411C46.9474 18.0064 47.3949 17.6676 47.9659 17.4247C48.5369 17.1776 49.1911 17.054 49.9283 17.054C50.9893 17.054 51.8246 17.2841 52.4339 17.7443C53.0433 18.2003 53.446 18.8118 53.642 19.5788ZM62.1547 22.9283V17.1818H64.0723V27H62.193V25.2997H62.0907C61.8649 25.8239 61.5027 26.2607 61.0041 26.6101C60.5098 26.9553 59.894 27.1278 59.1568 27.1278C58.5261 27.1278 57.9679 26.9893 57.4821 26.7124C57.0005 26.4311 56.6213 26.0156 56.3443 25.4659C56.0716 24.9162 55.9352 24.2365 55.9352 23.4268V17.1818H57.8464V23.1967C57.8464 23.8658 58.0318 24.3984 58.4025 24.7947C58.7733 25.1911 59.2548 25.3892 59.8471 25.3892C60.2051 25.3892 60.5609 25.2997 60.9146 25.1207C61.2725 24.9418 61.5687 24.6712 61.8031 24.3089C62.0417 23.9467 62.1589 23.4865 62.1547 22.9283ZM66.6403 27V17.1818H68.4748V18.7798H68.5962C68.8008 18.2386 69.1353 17.8168 69.5998 17.5142C70.0643 17.2074 70.6204 17.054 71.2681 17.054C71.9244 17.054 72.4741 17.2074 72.9173 17.5142C73.3647 17.821 73.695 18.2429 73.908 18.7798H74.0103C74.2447 18.2557 74.6175 17.8381 75.1289 17.527C75.6403 17.2116 76.2496 17.054 76.957 17.054C77.8477 17.054 78.5742 17.3331 79.1367 17.8913C79.7035 18.4496 79.9869 19.2912 79.9869 20.4162V27H78.0756V20.5952C78.0756 19.9304 77.8945 19.4489 77.5323 19.1506C77.1701 18.8523 76.7376 18.7031 76.2347 18.7031C75.6126 18.7031 75.1289 18.8949 74.7837 19.2784C74.4386 19.6577 74.266 20.1456 74.266 20.7422V27H72.3612V20.4737C72.3612 19.9411 72.195 19.5128 71.8626 19.1889C71.5302 18.8651 71.0977 18.7031 70.565 18.7031C70.2028 18.7031 69.8683 18.799 69.5614 18.9908C69.2589 19.1783 69.0138 19.4403 68.8263 19.777C68.6431 20.1136 68.5515 20.5036 68.5515 20.9467V27H66.6403ZM82.5485 27V17.1818H84.383V18.7798H84.5044C84.709 18.2386 85.0435 17.8168 85.508 17.5142C85.9725 17.2074 86.5286 17.054 87.1763 17.054C87.8326 17.054 88.3823 17.2074 88.8255 17.5142C89.2729 17.821 89.6032 18.2429 89.8162 18.7798H89.9185C90.1529 18.2557 90.5257 17.8381 91.0371 17.527C91.5485 17.2116 92.1578 17.054 92.8652 17.054C93.7559 17.054 94.4824 17.3331 95.0449 17.8913C95.6117 18.4496 95.8951 19.2912 95.8951 20.4162V27H93.9838V20.5952C93.9838 19.9304 93.8027 19.4489 93.4405 19.1506C93.0783 18.8523 92.6458 18.7031 92.1429 18.7031C91.5208 18.7031 91.0371 18.8949 90.6919 19.2784C90.3468 19.6577 90.1742 20.1456 90.1742 20.7422V27H88.2694V20.4737C88.2694 19.9411 88.1032 19.5128 87.7708 19.1889C87.4384 18.8651 87.0059 18.7031 86.4732 18.7031C86.111 18.7031 85.7765 18.799 85.4696 18.9908C85.1671 19.1783 84.9221 19.4403 84.7346 19.777C84.5513 20.1136 84.4597 20.5036 84.4597 20.9467V27H82.5485ZM101.314 27.2173C100.692 27.2173 100.129 27.1023 99.6264 26.8722C99.1236 26.6378 98.7251 26.299 98.4311 25.8558C98.1413 25.4126 97.9964 24.8693 97.9964 24.2259C97.9964 23.6719 98.103 23.2159 98.3161 22.858C98.5291 22.5 98.8168 22.2166 99.179 22.0078C99.5412 21.799 99.946 21.6413 100.393 21.5348C100.841 21.4283 101.297 21.3473 101.761 21.2919C102.349 21.2237 102.827 21.1683 103.193 21.1257C103.56 21.0788 103.826 21.0043 103.992 20.902C104.158 20.7997 104.241 20.6335 104.241 20.4034V20.3587C104.241 19.8004 104.084 19.3679 103.768 19.0611C103.457 18.7543 102.993 18.6009 102.375 18.6009C101.732 18.6009 101.224 18.7436 100.854 19.0291C100.487 19.3104 100.234 19.6236 100.093 19.9688L98.2969 19.5597C98.5099 18.9631 98.821 18.4815 99.2301 18.1151C99.6435 17.7443 100.119 17.4759 100.656 17.3097C101.192 17.1392 101.757 17.054 102.349 17.054C102.741 17.054 103.157 17.1009 103.596 17.1946C104.039 17.2841 104.452 17.4503 104.836 17.6932C105.224 17.9361 105.541 18.2834 105.788 18.7351C106.036 19.1825 106.159 19.7642 106.159 20.4801V27H104.293V25.6577H104.216C104.092 25.9048 103.907 26.1477 103.66 26.3864C103.413 26.625 103.095 26.8232 102.707 26.9808C102.32 27.1385 101.855 27.2173 101.314 27.2173ZM101.729 25.6832C102.258 25.6832 102.71 25.5788 103.085 25.37C103.464 25.1612 103.751 24.8885 103.947 24.5518C104.148 24.2109 104.248 23.8466 104.248 23.4588V22.1932C104.18 22.2614 104.048 22.3253 103.852 22.3849C103.66 22.4403 103.44 22.4893 103.193 22.532C102.946 22.5703 102.705 22.6065 102.471 22.6406C102.237 22.6705 102.04 22.696 101.883 22.7173C101.512 22.7642 101.173 22.843 100.866 22.9538C100.564 23.0646 100.321 23.2244 100.138 23.4332C99.9588 23.6378 99.8693 23.9105 99.8693 24.2514C99.8693 24.7244 100.044 25.0824 100.393 25.3253C100.743 25.5639 101.188 25.6832 101.729 25.6832Z" fill="black"/>
</svg>
